# xmcd
#
# Track frame offsets: 
#        150
#        11761
#        31713
#        51820
#        73249
#        99600
#        119529
#        139906
#        159055
#
# Disc length: 2398 seconds
#
# Revision: 0
# Processed by: cddbd v1.5.2PL0 Copyright (c) Steve Scherf et al.
# Submitted via: ExactAudioCopy v0.95b4
#
DISCID=74095c09
DTITLE=Tommy Vitaly - Hanging Rock
DYEAR=2012
DGENRE=Power Metal
TTITLE0=Betrayer
TTITLE1=Run With The Devil
TTITLE2=Hands Of Time
TTITLE3=Forever Lost
TTITLE4=Idol
TTITLE5=Misanthropy
TTITLE6=Heavy Metal God
TTITLE7=Hanging Rock
TTITLE8=Icewarrior
EXTD=
EXTT0=
EXTT1=
EXTT2=
EXTT3=
EXTT4=
EXTT5=
EXTT6=
EXTT7=
EXTT8=
PLAYORDER=
